<?xml version="1.0" encoding="utf-8"?>
<!-- Generator: Adobe Illustrator 16.0.0, SVG Export Plug-In . SVG Version: 6.00 Build 0)  -->
<!DOCTYPE svg PUBLIC "-//W3C//DTD SVG 1.1//EN" "http://www.w3.org/Graphics/SVG/1.1/DTD/svg11.dtd">
<svg version="1.1" id="Icon" xmlns="http://www.w3.org/2000/svg" xmlns:xlink="http://www.w3.org/1999/xlink" x="0px" y="0px"
	 width="841.89px" height="841.891px" viewBox="0 0 841.89 841.891" enable-background="new 0 0 841.89 841.891"
	 xml:space="preserve">
<g>
	<path fill="#292929" d="M319.378,464.799c-9.727-4.491-23.432-6.808-41.051-6.992H177.222v109.511h99.715
		c17.807,0,31.65-2.385,41.582-7.247c17.988-8.892,27.02-25.999,27.02-51.259C345.539,487.466,336.81,472.787,319.378,464.799z"/>
	<path fill="#292929" d="M320.488,379.669c11.137-6.782,16.691-18.821,16.691-36.094c0-19.123-7.359-31.765-22.063-37.899
		c-12.688-4.282-28.871-6.413-48.551-6.413h-89.344v90.57h99.833C294.882,389.833,309.351,386.454,320.488,379.669z"/>
	<path fill="#292929" d="M673.554,408.703c-12.664-10.93-28.338-16.393-47.066-16.393c-20.396,0-36.211,5.788-47.414,17.363
		c-11.23,11.576-18.27,27.249-21.162,47.021h136.805C693.283,435.627,686.22,419.607,673.554,408.703z"/>
	<path fill="#292929" d="M0,0v841.89h841.89V0H0z M503.32,231.243h243.813v39.543H503.32V231.243z M413.906,580.118
		c-7.756,12.805-17.455,23.615-29.078,32.32c-13.127,10.048-28.594,16.925-46.42,20.652c-17.826,3.704-37.158,5.58-58.041,5.58
		H95.289V227.908h198.505c50.078,0.74,85.57,15.325,106.453,43.757c12.57,17.479,18.846,38.362,18.846,62.695
		c0,25.098-6.367,45.24-19.033,60.474c-7.082,8.544-17.523,16.345-31.322,23.407c20.953,7.615,36.766,19.702,47.463,36.209
		c10.672,16.53,15.996,36.58,15.996,60.171C432.197,538.977,426.085,560.811,413.906,580.118z M777.207,509.066H555.943
		c1.229,30.467,11.809,51.838,31.742,64.108c12.154,7.616,26.764,11.436,43.803,11.436c18.105,0,32.783-4.676,44.104-13.981
		c6.184-4.979,11.602-11.946,16.324-20.86h81.1c-2.129,18.013-11.922,36.303-29.426,54.894
		c-27.227,29.52-65.334,44.313-114.301,44.313c-40.4,0-76.076-12.455-106.986-37.392c-30.906-24.91-46.35-65.45-46.35-121.616
		c0-52.579,13.961-92.954,41.857-121.016c27.875-28.083,64.086-42.113,108.605-42.113c26.439,0,50.24,4.747,71.447,14.238
		c21.186,9.491,38.666,24.473,52.51,44.938c12.434,18.037,20.49,38.966,24.172,62.789
		C776.699,462.761,777.554,482.858,777.207,509.066z"/>
</g>
</svg>
