<?xml version="1.0" encoding="utf-8"?>
<!-- Generator: Adobe Illustrator 16.0.0, SVG Export Plug-In . SVG Version: 6.00 Build 0)  -->
<!DOCTYPE svg PUBLIC "-//W3C//DTD SVG 1.1//EN" "http://www.w3.org/Graphics/SVG/1.1/DTD/svg11.dtd">
<svg version="1.1" id="Icon" xmlns="http://www.w3.org/2000/svg" xmlns:xlink="http://www.w3.org/1999/xlink" x="0px" y="0px"
	 width="841.891px" height="841.891px" viewBox="174.33 0 841.891 841.891" enable-background="new 174.33 0 841.891 841.891"
	 xml:space="preserve">
<path fill="#292929" d="M174.33,0V841.89h841.891V0H174.33z M402.188,563.219c-78.577,0-142.274-63.697-142.274-142.274
	c0-78.576,63.697-142.274,142.274-142.274c78.577,0,142.274,63.699,142.274,142.274
	C544.462,499.522,480.764,563.219,402.188,563.219z M788.361,563.219c-78.574,0-142.273-63.697-142.273-142.274
	c0-78.576,63.699-142.274,142.273-142.274c78.578,0,142.275,63.699,142.275,142.274
	C930.636,499.522,866.939,563.219,788.361,563.219z"/>
</svg>
