<?xml version="1.0" encoding="utf-8"?>
<!-- Generator: Adobe Illustrator 16.0.0, SVG Export Plug-In . SVG Version: 6.00 Build 0)  -->
<!DOCTYPE svg PUBLIC "-//W3C//DTD SVG 1.1//EN" "http://www.w3.org/Graphics/SVG/1.1/DTD/svg11.dtd">
<svg version="1.1" id="Icon" xmlns="http://www.w3.org/2000/svg" xmlns:xlink="http://www.w3.org/1999/xlink" x="0px" y="0px"
	 width="841.89px" height="841.891px" viewBox="174.33 0 841.89 841.891" enable-background="new 174.33 0 841.89 841.891"
	 xml:space="preserve">
<g>
	<path fill="#292929" d="M493.708,464.799c-9.726-4.491-23.431-6.807-41.05-6.992H351.552v109.511h99.716
		c17.805,0,31.649-2.385,41.582-7.247c17.988-8.892,27.019-25.999,27.019-51.259C519.869,487.466,511.14,472.788,493.708,464.799z"
		/>
	<path fill="#292929" d="M494.818,379.669c11.137-6.782,16.692-18.821,16.692-36.094c0-19.123-7.361-31.764-22.063-37.899
		c-12.688-4.282-28.872-6.413-48.551-6.413h-89.344v90.57h99.832C469.212,389.833,483.681,386.454,494.818,379.669z"/>
	<path fill="#292929" d="M847.885,408.703c-12.665-10.929-28.339-16.392-47.068-16.392c-20.396,0-36.21,5.788-47.414,17.363
		c-11.229,11.576-18.268,27.249-21.161,47.021h136.804C867.612,435.627,860.55,419.607,847.885,408.703z"/>
	<path fill="#292929" d="M174.33,0V841.89h841.89V0H174.33z M677.649,231.243h243.814v39.543H677.649V231.243z M588.236,580.119
		c-7.756,12.804-17.456,23.615-29.078,32.32c-13.128,10.048-28.594,16.925-46.421,20.652c-17.825,3.704-37.158,5.58-58.041,5.58
		H269.619V227.908h198.506c50.077,0.741,85.569,15.326,106.452,43.757c12.571,17.48,18.846,38.363,18.846,62.696
		c0,25.097-6.367,45.24-19.032,60.473c-7.083,8.544-17.525,16.345-31.324,23.407c20.953,7.616,36.766,19.703,47.463,36.21
		c10.673,16.53,15.997,36.58,15.997,60.171C606.526,538.977,600.415,560.811,588.236,580.119z M951.537,509.066H730.273
		c1.228,30.467,11.808,51.838,31.742,64.108c12.154,7.617,26.764,11.436,43.803,11.436c18.105,0,32.784-4.676,44.104-13.982
		c6.183-4.979,11.6-11.946,16.323-20.86h81.101c-2.13,18.013-11.923,36.303-29.426,54.894
		c-27.228,29.519-65.335,44.313-114.301,44.313c-40.4,0-76.077-12.455-106.986-37.391c-30.907-24.911-46.351-65.451-46.351-121.617
		c0-52.579,13.961-92.954,41.859-121.016c27.875-28.083,64.085-42.113,108.605-42.113c26.44,0,50.239,4.747,71.447,14.238
		c21.186,9.492,38.665,24.473,52.51,44.938c12.433,18.037,20.489,38.966,24.171,62.789
		C951.028,462.761,951.885,482.858,951.537,509.066z"/>
</g>
</svg>
