<?xml version="1.0" encoding="utf-8"?>
<!-- Generator: Adobe Illustrator 16.0.0, SVG Export Plug-In . SVG Version: 6.00 Build 0)  -->
<!DOCTYPE svg PUBLIC "-//W3C//DTD SVG 1.1//EN" "http://www.w3.org/Graphics/SVG/1.1/DTD/svg11.dtd">
<svg version="1.1" id="Icon" xmlns="http://www.w3.org/2000/svg" xmlns:xlink="http://www.w3.org/1999/xlink" x="0px" y="0px"
	 width="841.89px" height="841.89px" viewBox="221.919 0.534 841.89 841.89" enable-background="new 221.919 0.534 841.89 841.89"
	 xml:space="preserve">
<path fill="#292929" d="M221.918,0.534v841.89h841.89V0.534H221.918z M793.728,417.435h-92.871v342.001H560.174V419.698h-76.577
	V301.693h74.262c0-34.903,0.333-65.913,0-98.273c0-92.958,71.385-119.881,135.614-119.881c43.131,0,108.148,0,108.148,0v-0.018
	h0.105v116.566c-9.104,0.053-44.48,0-62.756,0c-2.246,0-40.551-2.087-40.551,34.623c0.279,14.979,0,66.649,0,66.649h103.709
	L793.728,417.435z"/>
</svg>
